<svg width="1920" height="1000" viewBox="0 0 1920 1000" fill="none" xmlns="http://www.w3.org/2000/svg">
<mask id="mask0_1125_564" style="mask-type:alpha" maskUnits="userSpaceOnUse" x="0" y="0" width="1920" height="1000">
<rect width="1920" height="1000" fill="#D9D9D9"/>
</mask>
<g mask="url(#mask0_1125_564)">
<g filter="url(#filter0_f_1125_564)">
<path d="M2604.29 -391.538C2604.29 -391.538 2431.29 503.015 2088.11 622.2C1752.5 738.755 1600.77 -15.8421 1266.97 109.329C933.291 234.453 1103.44 961.945 776.134 1113.57C423.718 1276.83 -128 631.785 -128 631.785" stroke="url(#paint0_linear_1125_564)" stroke-width="245.22" stroke-linecap="round"/>
</g>
<g style="mix-blend-mode:soft-light" filter="url(#filter1_f_1125_564)">
<path d="M2604.29 -391.538C2604.29 -391.538 2431.29 503.015 2088.11 622.2C1752.5 738.755 1600.77 -15.8421 1266.97 109.329C933.291 234.453 1103.44 961.945 776.134 1113.57C423.718 1276.83 -128 631.785 -128 631.785" stroke="url(#paint1_linear_1125_564)" stroke-width="245.22" stroke-linecap="round"/>
</g>
</g>
<defs>
<filter id="filter0_f_1125_564" x="-378.352" y="-651.45" width="3233.01" height="2051.42" filterUnits="userSpaceOnUse" color-interpolation-filters="sRGB">
<feFlood flood-opacity="0" result="BackgroundImageFix"/>
<feBlend mode="normal" in="SourceGraphic" in2="BackgroundImageFix" result="shape"/>
<feGaussianBlur stdDeviation="66.305" result="effect1_foregroundBlur_1125_564"/>
</filter>
<filter id="filter1_f_1125_564" x="-378.352" y="-651.45" width="3233.01" height="2051.42" filterUnits="userSpaceOnUse" color-interpolation-filters="sRGB">
<feFlood flood-opacity="0" result="BackgroundImageFix"/>
<feBlend mode="normal" in="SourceGraphic" in2="BackgroundImageFix" result="shape"/>
<feGaussianBlur stdDeviation="66.305" result="effect1_foregroundBlur_1125_564"/>
</filter>
<linearGradient id="paint0_linear_1125_564" x1="-2.76485" y1="883.96" x2="2907.78" y2="344.051" gradientUnits="userSpaceOnUse">
<stop stop-color="#FD9A61"/>
<stop offset="0.302083" stop-color="#5B0B0B"/>
<stop offset="0.651042" stop-color="#FD9A61"/>
<stop offset="1" stop-color="#F6F5F1"/>
</linearGradient>
<linearGradient id="paint1_linear_1125_564" x1="-2.76485" y1="883.96" x2="2907.78" y2="344.051" gradientUnits="userSpaceOnUse">
<stop stop-color="#FD9A61"/>
<stop offset="0.302083" stop-color="#B31718"/>
<stop offset="0.651042" stop-color="#FD9A61"/>
<stop offset="1" stop-color="#B31718"/>
</linearGradient>
</defs>
</svg>
